<svg xmlns="http://www.w3.org/2000/svg" version="1.1" xmlns:xlink="http://www.w3.org/1999/xlink" xmlns:svgjs="http://svgjs.dev/svgjs" width="1000" height="623" viewBox="0 0 1000 623"><g transform="matrix(1,0,0,1,-0.6060603231455843,0.2522267206477409)"><svg viewBox="0 0 396 247" data-background-color="#ffffff" preserveAspectRatio="xMidYMid meet" height="623" width="1000" xmlns="http://www.w3.org/2000/svg" xmlns:xlink="http://www.w3.org/1999/xlink"><g id="tight-bounds" transform="matrix(1,0,0,1,0.2400001120343518,-0.09999999999999432)"><svg viewBox="0 0 395.52 247.2" height="247.2" width="395.52"><g><svg></svg></g><g><svg viewBox="0 0 395.52 247.2" height="247.2" width="395.52"><g><g><path xmlns="http://www.w3.org/2000/svg" d="M153.932 247.2h-37.777l0-72.08h37.777zM116.155 0h70.785c28.363 0 50.858 7.506 67.485 22.519 14.638 13.26 22.833 29.781 24.584 49.561l-38.297 0c-1.46-11.326-6.058-20.56-13.794-27.701-9.536-8.802-23.351-13.204-41.445-13.204h-31.541l0 40.905h-37.777z" fill="#f9e17e" fill-rule="nonzero" stroke="none" stroke-width="1" stroke-linecap="butt" stroke-linejoin="miter" stroke-miterlimit="10" stroke-dasharray="" stroke-dashoffset="0" font-family="none" font-weight="none" font-size="none" text-anchor="none" style="mix-blend-mode: normal" data-fill-palette-color="tertiary"></path></g></g><g transform="matrix(1,0,0,1,0,83.71908523908525)"><svg viewBox="0 0 395.52 79.76182952182951" height="79.76182952182951" width="395.52"><g><svg viewBox="0 0 395.52 79.76182952182951" height="79.76182952182951" width="395.52"><g><svg viewBox="0 0 395.52 79.76182952182951" height="79.76182952182951" width="395.52"><g><svg viewBox="0 0 395.52 79.76182952182951" height="79.76182952182951" width="395.52"><g><svg viewBox="0 0 395.52 79.76182952182951" height="79.76182952182951" width="395.52"><g><svg viewBox="0 0 395.52 79.76182952182951" height="79.76182952182951" width="395.52"><g transform="matrix(1,0,0,1,0,0)"><svg width="395.52" viewBox="3.6500000953674316 -33.70000076293945 168.3400115966797 33.95000076293945" height="79.76182952182951" data-palette-color="#f9e17e"><path d="M13.6-11.95L13.6-11.95 8.8-11.95 8.8 0 3.65 0 3.65-33.7 13.3-33.7Q19.1-33.7 22.5-30.63 25.9-27.55 25.9-22.75 25.9-17.95 22.48-14.95 19.05-11.95 13.6-11.95ZM13.1-29.45L13.1-29.45 8.8-29.45 8.8-16.2 13.2-16.2Q16.85-16.2 18.78-18 20.7-19.8 20.7-22.75L20.7-22.75Q20.7-25.85 18.75-27.65 16.8-29.45 13.1-29.45ZM35.85-13.5L35.85 0 30.95 0 30.95-25.35 35.85-25.35 35.85-20.9Q37.7-25.6 42.5-25.6L42.5-25.6Q43.2-25.6 44.05-25.45L44.05-25.45 44.05-20.65Q43-21.1 41.7-21.1L41.7-21.1Q39.15-21.1 37.5-18.85 35.85-16.6 35.85-13.5L35.85-13.5ZM56.09-3.65L56.09-3.65Q58.5-3.65 59.87-4.98 61.25-6.3 61.25-8.45L61.25-8.45 61.25-11.3 57.45-11.3Q54.65-11.3 53.22-10.2 51.8-9.1 51.8-7.4L51.8-7.4Q51.8-5.65 52.9-4.65 54-3.65 56.09-3.65ZM61.39 0L61.39-3Q59.45 0.2 54.55 0.2L54.55 0.2Q50.95 0.2 48.77-1.88 46.59-3.95 46.59-7.15L46.59-7.15Q46.59-10.8 49.34-12.83 52.09-14.85 57.05-14.85L57.05-14.85 61.25-14.85 61.25-16.3Q61.25-18.9 60-20.23 58.75-21.55 55.84-21.55L55.84-21.55Q51.8-21.55 48.49-19.3L48.49-19.3 48.49-24.05Q51.45-25.75 56.3-25.75L56.3-25.75Q66.25-25.75 66.25-16.1L66.25-16.1 66.25 0 61.39 0ZM94.14-25.35L84.94 0 79.34 0 70.34-25.35 75.49-25.35 78.94-14.65Q80.14-10.95 80.97-8.25 81.79-5.55 81.99-4.7L81.99-4.7 82.19-3.85Q82.64-6.3 85.49-14.65L85.49-14.65 89.04-25.35 94.14-25.35ZM117.44-5.75L117.44-1.35Q114.64 0.25 110.04 0.25L110.04 0.25Q104.14 0.25 100.64-3.3 97.14-6.85 97.14-12.6L97.14-12.6Q97.14-18.7 100.34-22.18 103.54-25.65 108.49-25.65L108.49-25.65Q113.34-25.65 116.19-22.63 119.04-19.6 119.04-13.9L119.04-13.9Q119.04-12.35 118.74-10.65L118.74-10.65 102.09-10.65Q102.59-7.35 104.89-5.6 107.19-3.85 110.69-3.85L110.69-3.85Q114.74-3.85 117.44-5.75L117.44-5.75ZM108.59-21.6L108.59-21.6Q106.09-21.6 104.29-19.78 102.49-17.95 102.04-14.5L102.04-14.5 114.29-14.5 114.29-15.4Q114.19-18.25 112.74-19.93 111.29-21.6 108.59-21.6ZM143.69-5.75L143.69-1.35Q140.89 0.25 136.29 0.25L136.29 0.25Q130.39 0.25 126.89-3.3 123.39-6.85 123.39-12.6L123.39-12.6Q123.39-18.7 126.59-22.18 129.79-25.65 134.74-25.65L134.74-25.65Q139.59-25.65 142.44-22.63 145.29-19.6 145.29-13.9L145.29-13.9Q145.29-12.35 144.99-10.65L144.99-10.65 128.34-10.65Q128.84-7.35 131.14-5.6 133.44-3.85 136.94-3.85L136.94-3.85Q140.99-3.85 143.69-5.75L143.69-5.75ZM134.84-21.6L134.84-21.6Q132.34-21.6 130.54-19.78 128.74-17.95 128.29-14.5L128.29-14.5 140.54-14.5 140.54-15.4Q140.44-18.25 138.99-19.93 137.54-21.6 134.84-21.6ZM171.99-17.15L171.99 0 167.09 0 167.09-16Q167.09-18.65 165.76-20.05 164.44-21.45 162.24-21.45L162.24-21.45Q159.64-21.45 157.79-19.43 155.94-17.4 155.94-13.75L155.94-13.75 155.94 0 151.04 0 151.04-25.35 155.94-25.35 155.94-21Q158.19-25.7 163.84-25.7L163.84-25.7Q167.59-25.7 169.79-23.4 171.99-21.1 171.99-17.15L171.99-17.15Z" opacity="1" transform="matrix(1,0,0,1,0,0)" fill="#f9e17e" class="undefined-text-0" data-fill-palette-color="primary" id="text-0"></path></svg></g></svg></g></svg></g></svg></g></svg></g></svg></g></svg></g></svg></g><defs></defs></svg><rect width="395.52" height="247.2" fill="none" stroke="none" visibility="hidden"></rect></g></svg></g></svg>